<svg width="65" height="76" viewBox="0 0 65 76" fill="none" xmlns="http://www.w3.org/2000/svg">
<path fill-rule="evenodd" clip-rule="evenodd" d="M23.8089 7.85773C21.3355 6.0602 18.2916 5 15 5C6.71573 5 0 11.7157 0 20C0 28.2843 6.71573 35 15 35C18.2916 35 21.3355 33.9398 23.8089 32.1423L26.6667 35H40V28.3333H30V11.6667H32.5V5H26.6667L23.8089 7.85773ZM23.3333 20C23.3333 24.6024 19.6024 28.3333 15 28.3333C10.3976 28.3333 6.66667 24.6024 6.66667 20C6.66667 15.3976 10.3976 11.6667 15 11.6667C19.6024 11.6667 23.3333 15.3976 23.3333 20Z" fill="#273149"/>
<path d="M3.77131 71L4.85085 67.6832H10.0994L11.179 71H14.4744L9.46023 56.4545H5.49716L0.475852 71H3.77131ZM5.6321 65.2827L7.42188 59.7784H7.53551L9.32528 65.2827H5.6321ZM19.1939 64.6932C19.201 63.2869 20.0391 62.4631 21.2607 62.4631C22.4751 62.4631 23.2067 63.2585 23.1996 64.5938V71H26.2251V64.054C26.2251 61.5114 24.7337 59.9489 22.4609 59.9489C20.8416 59.9489 19.6697 60.7443 19.1797 62.0156H19.0518V60.0909H16.1683V71H19.1939V64.6932ZM31.7205 71.206C33.3327 71.206 34.3768 70.5028 34.9094 69.4872H34.9947V71H37.864V63.642C37.864 61.0426 35.6623 59.9489 33.2333 59.9489C30.6197 59.9489 28.9009 61.1989 28.4819 63.1875L31.2802 63.4148C31.4862 62.6903 32.1325 62.1577 33.2191 62.1577C34.2489 62.1577 34.8384 62.6761 34.8384 63.571V63.6136C34.8384 64.3168 34.0927 64.4091 32.1964 64.5938C30.0373 64.7926 28.0984 65.517 28.0984 67.9531C28.0984 70.1122 29.6396 71.206 31.7205 71.206ZM32.587 69.1179C31.6566 69.1179 30.989 68.6847 30.989 67.8537C30.989 67.0014 31.6921 66.5824 32.7575 66.4332C33.418 66.3409 34.4975 66.1847 34.8597 65.9432V67.1009C34.8597 68.2443 33.9151 69.1179 32.587 69.1179ZM46.0138 60.0909H43.9613V57.4773H40.9357V60.0909H39.4442V62.3636H40.9357V68.0455C40.9215 70.1832 42.3775 71.2415 44.5721 71.1491C45.3533 71.1207 45.9073 70.9645 46.2127 70.8651L45.7369 68.6136C45.5877 68.642 45.2681 68.7131 44.984 68.7131C44.3803 68.7131 43.9613 68.4858 43.9613 67.6477V62.3636H46.0138V60.0909ZM51.0955 71.206C52.7077 71.206 53.7518 70.5028 54.2844 69.4872H54.3697V71H57.239V63.642C57.239 61.0426 55.0373 59.9489 52.6083 59.9489C49.9947 59.9489 48.2759 61.1989 47.8569 63.1875L50.6552 63.4148C50.8612 62.6903 51.5075 62.1577 52.5941 62.1577C53.6239 62.1577 54.2134 62.6761 54.2134 63.571V63.6136C54.2134 64.3168 53.4677 64.4091 51.5714 64.5938C49.4123 64.7926 47.4734 65.517 47.4734 67.9531C47.4734 70.1122 49.0146 71.206 51.0955 71.206ZM51.962 69.1179C51.0316 69.1179 50.364 68.6847 50.364 67.8537C50.364 67.0014 51.0671 66.5824 52.1325 66.4332C52.793 66.3409 53.8725 66.1847 54.2347 65.9432V67.1009C54.2347 68.2443 53.2901 69.1179 51.962 69.1179ZM61.3548 71.1847C62.2638 71.1847 63.0522 70.4247 63.0593 69.4801C63.0522 68.5497 62.2638 67.7898 61.3548 67.7898C60.4173 67.7898 59.6431 68.5497 59.6502 69.4801C59.6431 70.4247 60.4173 71.1847 61.3548 71.1847Z" fill="#273149"/>
</svg>
