<svg width="260" height="304" viewBox="0 0 260 304" fill="none" xmlns="http://www.w3.org/2000/svg">
<path fill-rule="evenodd" clip-rule="evenodd" d="M95.2356 31.4309C85.342 24.2408 73.1664 20 60 20C26.8629 20 0 46.8628 0 80C0 113.137 26.8629 140 60 140C73.1664 140 85.342 135.759 95.2356 128.569L106.667 140H160V113.333H120V46.6668H130V20H106.667L95.2356 31.4309ZM93.3332 80C93.3332 98.4096 78.4096 113.333 60 113.333C41.5904 113.333 26.6667 98.4096 26.6667 80C26.6667 61.5904 41.5904 46.6668 60 46.6668C78.4096 46.6668 93.3332 61.5904 93.3332 80Z" fill="#273149"/>
<path d="M15.0852 284L19.4033 270.733H40.3975L44.7159 284H57.8975L37.8408 225.818H21.9886L1.90332 284H15.0852ZM22.5283 261.131L29.6874 239.114H30.142L37.301 261.131H22.5283ZM76.7755 258.773C76.8039 253.148 80.1563 249.852 85.0427 249.852C89.9003 249.852 92.8267 253.034 92.7983 258.375V284H104.9V256.216C104.9 246.046 98.9347 239.796 89.8435 239.796C83.3663 239.796 78.6787 242.977 76.7187 248.062H76.2071V240.364H64.6731V284H76.7755V258.773ZM126.882 284.824C133.331 284.824 137.507 282.011 139.638 277.949H139.979V284H151.456V254.568C151.456 244.17 142.649 239.796 132.933 239.796C122.479 239.796 115.604 244.796 113.928 252.75L125.121 253.659C125.945 250.761 128.53 248.631 132.876 248.631C136.996 248.631 139.354 250.704 139.354 254.284V254.454C139.354 257.267 136.371 257.636 128.786 258.375C120.149 259.17 112.394 262.068 112.394 271.812C112.394 280.449 118.558 284.824 126.882 284.824ZM130.348 276.472C126.626 276.472 123.956 274.739 123.956 271.415C123.956 268.006 126.768 266.33 131.03 265.733C133.672 265.364 137.99 264.739 139.439 263.773V268.404C139.439 272.977 135.66 276.472 130.348 276.472ZM184.055 240.364H175.845V229.909H163.743V240.364H157.777V249.454H163.743V272.182C163.686 280.733 169.51 284.966 178.288 284.596C181.413 284.483 183.629 283.858 184.851 283.46L182.948 274.454C182.351 274.568 181.072 274.852 179.936 274.852C177.521 274.852 175.845 273.943 175.845 270.591V249.454H184.055V240.364ZM204.382 284.824C210.831 284.824 215.007 282.011 217.138 277.949H217.479V284H228.956V254.568C228.956 244.17 220.149 239.796 210.433 239.796C199.979 239.796 193.104 244.796 191.428 252.75L202.621 253.659C203.445 250.761 206.03 248.631 210.376 248.631C214.496 248.631 216.854 250.704 216.854 254.284V254.454C216.854 257.267 213.871 257.636 206.286 258.375C197.649 259.17 189.894 262.068 189.894 271.812C189.894 280.449 196.058 284.824 204.382 284.824ZM207.848 276.472C204.126 276.472 201.456 274.739 201.456 271.415C201.456 268.006 204.268 266.33 208.53 265.733C211.172 265.364 215.49 264.739 216.939 263.773V268.404C216.939 272.977 213.16 276.472 207.848 276.472ZM245.419 284.739C249.055 284.739 252.209 281.699 252.237 277.92C252.209 274.199 249.055 271.159 245.419 271.159C241.669 271.159 238.572 274.199 238.601 277.92C238.572 281.699 241.669 284.739 245.419 284.739Z" fill="#273149"/>
</svg>
